# xmcd
#
# Track frame offsets: 
#        150
#        20500
#        38900
#        58100
#        75850
#        93500
#        112125
#        139287
#        155500
#        183362
#        214137
#        229425
#        245450
#        266975
#        288300
#        306387
#        326637
#
# Disc length: 4763 seconds
#
# Revision: 4
# Processed by: cddbd v1.5.2PL0 Copyright (c) Steve Scherf et al.
# Submitted via: ExactAudioCopy v0.99pb5
#
DISCID=fe129911
DTITLE=Chris Rea - The Very Best Of
DYEAR=2001
DGENRE=Pop
TTITLE0=The road to hell (Part 2)
TTITLE1=Fool (if you think it's over)
TTITLE2=Let's dance
TTITLE3=You can go your own way
TTITLE4=Julia
TTITLE5=Stainsby girls
TTITLE6=Tell me there's a heaven
TTITLE7=Josephine
TTITLE8=Steel river
TTITLE9=On the beach (Summer '88)
TTITLE10=I can hear your heartbeat
TTITLE11=All summer long (Version 2000)
TTITLE12=The blue cafe
TTITLE13=Auberge
TTITLE14=Driving home for Christmas
TTITLE15=Nothing to fear
TTITLE16=Saudade (Part 1 and 2 - Tribute to Ayrton Senna)
EXTD=
EXTT0=
EXTT1=
EXTT2=
EXTT3=
EXTT4=
EXTT5=
EXTT6=
EXTT7=
EXTT8=
EXTT9=
EXTT10=
EXTT11=
EXTT12=
EXTT13=
EXTT14=
EXTT15=
EXTT16=
PLAYORDER=
